<svg width="72" height="44" viewBox="0 0 72 44" fill="none" xmlns="http://www.w3.org/2000/svg">
<path d="M6.22552 2.19315L45.4539 2.19315V32.1419L9.70276 31.8716V36.4368L6.22552 36.4096V2.19315Z" fill="white"/>
<path d="M44.0051 7.94315L58.6301 11.0681L65.7745 26.8181V36.7908H62.5555V32.176L44.0051 31.8355V7.94315Z" fill="white"/>
<path fill-rule="evenodd" clip-rule="evenodd" d="M17.4771 12.0085C16.8126 12.2186 16.4449 12.4451 16.0389 12.8945C15.7113 13.2571 15.2335 14.0353 15.2335 14.2062C15.2335 14.2372 17.3235 14.2626 19.8779 14.2626H24.5222L24.978 13.5582C25.4993 12.7524 25.8581 12.3943 26.4513 12.0876L26.8687 11.8716L22.3816 11.874C19.0587 11.8758 17.7862 11.9107 17.4771 12.0085ZM27.7035 11.9603C27.2027 12.0829 26.5822 12.4426 26.2231 12.8185C25.9723 13.0811 20.1804 22.7311 19.4171 24.1581L19.287 24.4012L20.6778 24.3668C22.272 24.3275 22.7173 24.1734 23.4593 23.4044C23.7213 23.133 25.0097 20.9676 26.974 17.4975C28.6797 14.4843 30.0961 11.9838 30.1217 11.9407C30.1806 11.8414 28.1218 11.8581 27.7035 11.9603ZM34.8822 12.0137C34.3957 12.1657 33.7095 12.6334 33.4059 13.0198C33.1899 13.2946 26.7122 24.2393 26.7122 24.3293C26.7122 24.3597 27.2917 24.3847 27.9999 24.3847C29.2182 24.3847 29.321 24.368 29.9061 24.0757C30.2462 23.9057 30.6721 23.6123 30.8528 23.4235C31.1252 23.1387 37.1989 12.6022 37.4145 12.0403C37.4762 11.8796 37.3789 11.8631 36.402 11.8695C35.8076 11.8733 35.1237 11.9381 34.8822 12.0137ZM28.4057 16.1635L26.7077 19.1581L26.7361 21.1952L26.7644 23.2323L28.4623 20.2412L30.1601 17.2502L30.1319 15.2096L30.1036 13.1688L28.4057 16.1635ZM35.7125 16.2531L34.0168 19.2402V21.8254V24.4106L34.5749 24.3642C35.6443 24.2755 36.7092 23.476 37.1927 22.3986L37.4627 21.7968L37.4355 17.5313L37.4083 13.2659L35.7125 16.2531ZM19.9293 14.8474C19.249 15.0296 18.6915 15.3771 18.3075 15.8583C18.154 16.0507 16.9517 18.0361 15.6356 20.2703L13.2427 24.3325L14.5085 24.3619C15.6818 24.3891 15.8175 24.3715 16.3648 24.1214C17.1396 23.7674 17.5459 23.3634 18.1468 22.3498C18.8726 21.1256 22.4338 14.8001 22.4338 14.7353C22.4338 14.615 20.4689 14.7029 19.9293 14.8474Z" fill="#97D3DF"/>
<path d="M48.9607 22.5351L62.0382 24.9124L58.4391 15.5598L48.9607 22.5351Z" fill="#143463" fill-opacity="0.2"/>
<path d="M48.9607 31.8356V10.5941L44.3105 9.7471V31.8356H9.4339V36.4858H18.7343V39.9735L22.222 42.2986L25.7096 39.9735V36.4858H48.9607V39.9735L52.4483 42.2986L55.936 39.9735V36.4858H62.9113V31.8356H48.9607Z" fill="#143463" fill-opacity="0.2"/>
<path d="M9.4339 31.8356H44.3105M9.4339 31.8356V36.4858H14.0841M9.4339 31.8356L9.4339 3.9343H44.3105V31.8356M44.3105 31.8356H62.9113V36.4858H60.5862M30.3598 36.4858H44.3105" stroke="#143463" stroke-linecap="round" stroke-linejoin="round"/>
<path d="M18.7343 38.2295C18.7343 39.319 19.2788 40.3364 20.1853 40.9407L20.2874 41.0087C21.4589 41.7897 22.9851 41.7897 24.1566 41.0087L24.2587 40.9407C25.1652 40.3364 25.7096 39.319 25.7096 38.2295C25.7096 37.1401 25.1652 36.1227 24.2587 35.5184L24.1566 35.4503C22.9851 34.6693 21.4589 34.6693 20.2874 35.4503L20.1853 35.5184C19.2788 36.1227 18.7343 37.1401 18.7343 38.2295ZM48.9607 38.2295C48.9607 39.319 49.5052 40.3364 50.4116 40.9407L50.5137 41.0087C51.6852 41.7897 53.2114 41.7897 54.3829 41.0087L54.485 40.9407C55.3915 40.3364 55.936 39.319 55.936 38.2295C55.936 37.1401 55.3915 36.1227 54.485 35.5184L54.3829 35.4503C53.2114 34.6693 51.6852 34.6693 50.5137 35.4503L50.4116 35.5184C49.5052 36.1227 48.9607 37.1401 48.9607 38.2295Z" stroke="#143463" stroke-linejoin="round"/>
<path d="M58.4414 15.5598H48.9607V22.5351L62.0382 24.9124" stroke="#143463" stroke-linecap="round" stroke-linejoin="round"/>
<path d="M62.9113 31.8356V27.1854L57.0986 12.0722L44.3105 9.7471" stroke="#143463" stroke-linecap="round" stroke-linejoin="round"/>
</svg>
